<svg xmlns="http://www.w3.org/2000/svg" width="720" height="720" viewBox="0 0 720 720" version="1.1"><path d="M 63 118.767 C 63 119.189, 67.950 124.469, 74 130.500 L 85 141.466 85 235.467 L 85 329.469 73.874 340.626 C 67.473 347.045, 63.039 352.254, 63.433 352.892 C 63.913 353.669, 74.570 354, 99.059 354 C 129.774 354, 134 353.815, 134 352.468 C 134 351.626, 129.050 346.015, 123 340 L 112 329.064 112.068 251.782 C 112.119 193.564, 112.414 175.117, 113.263 177 C 116.999 185.282, 120.057 192.517, 122.983 200 C 124.811 204.675, 126.687 208.928, 127.153 209.450 C 127.619 209.973, 128 210.990, 128 211.711 C 128 212.432, 128.945 215.154, 130.100 217.761 C 131.254 220.367, 132.559 223.400, 132.998 224.500 C 133.437 225.600, 134.480 228.075, 135.316 230 C 136.152 231.925, 137.615 235.525, 138.568 238 C 139.521 240.475, 140.683 242.928, 141.150 243.450 C 141.618 243.973, 142 244.990, 142 245.711 C 142 246.432, 142.945 249.154, 144.100 251.761 C 145.254 254.367, 146.544 257.400, 146.966 258.500 C 147.387 259.600, 148.243 261.738, 148.866 263.250 C 149.490 264.762, 150.386 267.012, 150.858 268.250 C 151.330 269.488, 152.680 272.455, 153.858 274.845 C 155.036 277.234, 156 279.601, 156 280.105 C 156 280.609, 156.945 283.154, 158.100 285.761 C 159.254 288.367, 160.604 291.512, 161.100 292.750 C 161.595 293.988, 162.450 296.125, 163 297.500 C 163.550 298.875, 164.450 301.125, 165 302.500 C 165.550 303.875, 166.404 306.012, 166.898 307.250 C 167.392 308.488, 168.517 311.188, 169.398 313.250 C 170.279 315.312, 171.721 318.687, 172.602 320.750 C 174.259 324.630, 175.377 327.383, 176.866 331.250 C 177.343 332.488, 178.243 334.738, 178.866 336.250 C 179.490 337.762, 180.503 340.238, 181.117 341.750 C 181.731 343.262, 182.631 345.281, 183.117 346.236 C 183.603 347.191, 184 348.654, 184 349.486 C 184 350.319, 184.450 351, 185 351 C 185.550 351, 186 351.681, 186 352.514 C 186 353.346, 186.397 354.809, 186.883 355.764 C 187.992 357.943, 189.646 361.959, 190.378 364.250 C 190.686 365.212, 191.572 366, 192.347 366 C 194.185 366, 207 352.415, 207 350.468 C 207 349.646, 207.397 348.191, 207.883 347.236 C 208.369 346.281, 209.322 344.150, 210 342.500 C 210.678 340.850, 211.631 338.719, 212.117 337.764 C 212.603 336.809, 213 335.549, 213 334.965 C 213 334.381, 213.900 332.041, 215 329.764 C 216.100 327.487, 217 324.809, 217 323.812 C 217 322.815, 217.369 322, 217.819 322 C 218.270 322, 219.251 319.750, 220 317 C 220.749 314.250, 221.649 312, 222 312 C 222.351 312, 223.251 309.750, 224 307 C 224.749 304.250, 225.632 302, 225.962 302 C 226.293 302, 227.175 299.928, 227.923 297.396 C 228.671 294.863, 230.119 291.060, 231.141 288.944 C 232.164 286.828, 233 284.709, 233 284.236 C 233 283.763, 233.900 281.513, 235 279.236 C 236.100 276.959, 237 274.619, 237 274.035 C 237 273.451, 237.397 272.191, 237.883 271.236 C 238.884 269.270, 240.907 264.484, 242 261.500 C 242.403 260.400, 243.243 258.262, 243.866 256.750 C 244.490 255.238, 245.510 252.762, 246.134 251.250 C 246.757 249.738, 247.657 247.488, 248.134 246.250 C 248.610 245.012, 249.450 242.875, 250 241.500 C 250.550 240.125, 251.390 237.988, 251.866 236.750 C 252.343 235.512, 253.182 233.375, 253.732 232 C 254.282 230.625, 255.182 228.375, 255.732 227 C 256.282 225.625, 257.243 223.262, 257.866 221.750 C 258.490 220.238, 259.510 217.762, 260.134 216.250 C 260.757 214.738, 261.657 212.488, 262.134 211.250 C 262.610 210.012, 263.510 207.762, 264.134 206.250 C 265.384 203.217, 266.750 199.815, 268.250 196 C 268.791 194.625, 269.631 192.719, 270.117 191.764 C 270.603 190.809, 271 189.346, 271 188.514 C 271 187.681, 271.450 187, 272 187 C 272.657 187, 273 211.330, 273 257.989 L 273 328.979 261.459 340.519 C 255.112 346.867, 250.189 352.496, 250.518 353.030 C 251.422 354.492, 315.218 354.313, 318.453 352.839 C 319.854 352.201, 321 351.301, 321 350.839 C 321 350.378, 321.605 350, 322.345 350 C 323.085 350, 324.497 349.108, 325.483 348.019 C 327.625 345.652, 327.617 345.639, 317.750 335.816 L 311 329.097 311.012 235.798 L 311.024 142.500 322.512 130.658 C 328.830 124.144, 334 118.632, 334 118.408 C 334 118.183, 320.050 118, 303 118 C 275.988 118, 272 118.195, 272 119.514 C 272 120.346, 271.603 121.809, 271.117 122.764 C 270.290 124.388, 269.447 126.382, 267 132.500 C 266.450 133.875, 265.550 136.125, 265 137.500 C 264.450 138.875, 263.550 141.125, 263 142.500 C 262.450 143.875, 261.610 146.012, 261.134 147.250 C 259.689 151.002, 257.817 155.401, 256.883 157.236 C 256.397 158.191, 256 159.879, 256 160.986 C 256 162.094, 255.550 163, 255 163 C 254.450 163, 254 163.873, 254 164.941 C 254 166.009, 253.550 167.160, 253 167.500 C 252.450 167.840, 252 169.216, 252 170.559 C 252 171.902, 251.550 173, 251 173 C 250.450 173, 250 174.125, 250 175.500 C 250 176.875, 249.550 178, 249 178 C 248.450 178, 248 179.125, 248 180.500 C 248 181.875, 247.550 183, 247 183 C 246.450 183, 246 183.873, 246 184.941 C 246 186.009, 245.550 187.160, 245 187.500 C 244.450 187.840, 244 189.216, 244 190.559 C 244 191.902, 243.550 193, 243 193 C 242.450 193, 242 193.873, 242 194.941 C 242 196.009, 241.550 197.160, 241 197.500 C 240.450 197.840, 240 199.216, 240 200.559 C 240 201.902, 239.550 203, 239 203 C 238.450 203, 238 203.873, 238 204.941 C 238 206.009, 237.550 207.160, 237 207.500 C 236.450 207.840, 236 209.216, 236 210.559 C 236 211.902, 235.550 213, 235 213 C 234.450 213, 234 213.873, 234 214.941 C 234 216.009, 233.550 217.160, 233 217.500 C 232.450 217.840, 232 219.216, 232 220.559 C 232 221.902, 231.550 223, 231 223 C 230.450 223, 230 223.873, 230 224.941 C 230 226.009, 229.550 227.160, 229 227.500 C 228.450 227.840, 228 229.216, 228 230.559 C 228 231.902, 227.550 233, 227 233 C 226.450 233, 226 233.873, 226 234.941 C 226 236.009, 225.550 237.160, 225 237.500 C 224.450 237.840, 224 239.216, 224 240.559 C 224 241.902, 223.550 243, 223 243 C 222.450 243, 222 243.873, 222 244.941 C 222 246.009, 221.550 247.160, 221 247.500 C 220.450 247.840, 220 249.216, 220 250.559 C 220 251.902, 219.550 253, 219 253 C 218.450 253, 218 253.873, 218 254.941 C 218 256.009, 217.550 257.160, 217 257.500 C 216.450 257.840, 216 259.216, 216 260.559 C 216 261.902, 215.550 263, 215 263 C 214.450 263, 214 263.873, 214 264.941 C 214 266.009, 213.550 267.160, 213 267.500 C 212.450 267.840, 212 269.216, 212 270.559 C 212 271.902, 211.550 273, 211 273 C 210.450 273, 210 273.873, 210 274.941 C 210 276.009, 209.550 277.160, 209 277.500 C 208.450 277.840, 208 279.216, 208 280.559 C 208 281.902, 207.550 283, 207 283 C 206.450 283, 205.986 283.788, 205.968 284.750 C 205.951 285.712, 205.276 287.374, 204.468 288.441 C 203.029 290.343, 203 290.340, 203 288.250 C 203 287.077, 202.550 285.840, 202 285.500 C 201.450 285.160, 201 284.212, 201 283.393 C 201 282.574, 200.100 280.041, 199 277.764 C 197.900 275.487, 197 273.254, 197 272.801 C 197 272.349, 196.146 270.071, 195.103 267.739 C 194.059 265.408, 180.222 230.764, 164.353 190.754 L 135.500 118.008 99.250 118.004 C 79.313 118.002, 63 118.345, 63 118.767 M 471.389 130.784 C 422.118 163.043, 413 169.842, 413 174.321 C 413 175.153, 412.100 177.934, 411 180.500 C 409.900 183.066, 409 185.944, 409 186.895 C 409 187.846, 408.100 190.487, 407 192.764 C 405.900 195.041, 405 197.960, 405 199.252 C 405 200.543, 404.604 202.028, 404.121 202.550 C 403.637 203.072, 402.706 205.300, 402.051 207.500 C 401.396 209.700, 400.508 212.400, 400.077 213.500 C 398.011 218.777, 395.717 225.749, 395.306 228 C 395.055 229.375, 394.377 231.476, 393.799 232.669 C 392.272 235.822, 394.449 245.127, 400.077 259.500 C 400.508 260.600, 401.396 263.300, 402.051 265.500 C 402.706 267.700, 403.637 269.928, 404.121 270.450 C 404.604 270.973, 405 272.457, 405 273.748 C 405 275.040, 405.900 277.959, 407 280.236 C 408.100 282.513, 409 285.154, 409 286.105 C 409 287.056, 409.900 289.934, 411 292.500 C 412.100 295.066, 413 297.844, 413 298.673 C 413 301.391, 418.196 307.386, 426.285 314 C 430.657 317.575, 436.800 322.750, 439.935 325.500 C 451.197 335.379, 457.298 340.515, 458.824 341.405 C 459.678 341.903, 461.784 343.703, 463.503 345.405 C 465.222 347.107, 468.586 350.075, 470.979 352 C 473.371 353.925, 475.818 355.950, 476.415 356.500 C 477.425 357.431, 487.248 365.799, 492.983 370.614 C 494.367 371.776, 499.100 375.838, 503.500 379.640 C 507.900 383.442, 515.775 390.114, 521 394.467 C 526.225 398.819, 532.767 404.432, 535.538 406.940 C 538.309 409.448, 546.804 416.675, 554.415 423 C 562.027 429.325, 578.773 444.854, 591.628 457.509 L 615 480.518 615 502.404 L 615 524.290 604.750 534.732 L 594.500 545.174 572.705 556.087 L 550.911 567 517.624 567 L 484.338 567 483 564.500 C 482.264 563.125, 481.288 562, 480.831 562 C 480.374 562, 480 561.525, 480 560.945 C 480 560.365, 478.200 557.240, 476 554 C 473.800 550.760, 472 547.635, 472 547.055 C 472 546.475, 471.550 546, 471 546 C 470.450 546, 470 545.410, 470 544.689 C 470 543.967, 469.212 542.505, 468.250 541.439 C 467.287 540.372, 465.861 538.263, 465.081 536.750 C 464.301 535.237, 463.288 534, 462.831 534 C 462.374 534, 462 533.503, 462 532.895 C 462 532.287, 460.762 529.925, 459.250 527.645 C 457.738 525.365, 455.861 522.263, 455.081 520.750 C 454.301 519.237, 453.288 518, 452.831 518 C 452.374 518, 452 517.530, 452 516.955 C 452 516.380, 449.852 512.668, 447.226 508.705 C 444.600 504.742, 441.824 500.262, 441.057 498.750 C 440.290 497.237, 439.288 496, 438.831 496 C 438.374 496, 438 495.540, 438 494.977 C 438 494.414, 435.750 490.556, 433 486.403 C 430.250 482.251, 428 478.521, 428 478.115 C 428 477.709, 427.212 476.505, 426.250 475.439 C 425.288 474.372, 423.825 472.188, 423 470.584 C 422.175 468.980, 420.228 466.392, 418.673 464.834 C 415.934 462.088, 415.524 462, 405.546 462 C 393.273 462, 392.373 462.578, 393.458 469.758 C 393.852 472.366, 394.559 477.650, 395.029 481.500 C 395.500 485.350, 396.377 491.425, 396.980 495 C 398.998 506.968, 400.060 514.438, 400.961 523 C 401.453 527.675, 402.386 533.525, 403.035 536 C 403.684 538.475, 404.577 544.550, 405.019 549.500 C 405.462 554.450, 406.539 561.109, 407.412 564.299 C 408.285 567.488, 409 572.181, 409 574.728 C 409 577.274, 409.420 580.740, 409.933 582.429 C 410.447 584.118, 411.366 589.775, 411.976 595 C 412.587 600.225, 413.628 606.456, 414.290 608.847 C 415.569 613.464, 418.272 615.847, 420.314 614.157 C 420.966 613.617, 425.325 611.304, 430 609.017 C 434.675 606.731, 439.288 604.441, 440.250 603.930 C 441.212 603.418, 442.900 602.550, 444 602 C 445.100 601.450, 446.900 600.550, 448 600 C 449.100 599.450, 450.788 598.588, 451.750 598.084 C 459.933 593.801, 464.805 593.364, 475 595.999 C 480.083 597.313, 493.629 600.027, 500 601.008 C 503.025 601.474, 507.075 602.354, 509 602.964 C 510.925 603.574, 515.200 604.466, 518.500 604.947 C 524.876 605.876, 539.180 608.587, 545 609.971 C 552.561 611.768, 565.708 614.312, 569.624 614.735 C 573.381 615.142, 577.694 613.220, 618.204 593.091 C 650.682 576.953, 662.940 570.394, 663.694 568.750 C 665.024 565.855, 667.962 554.793, 668.941 549 C 669.359 546.525, 670.437 542.475, 671.336 540 C 672.235 537.525, 672.984 534.375, 673 533 C 673.016 531.625, 673.730 528.487, 674.586 526.027 C 675.443 523.567, 676.587 519.517, 677.130 517.027 C 680.750 500.404, 681.114 499.048, 682.119 498.426 C 682.604 498.127, 683 496.104, 683 493.930 C 683 491.757, 683.965 487.924, 685.145 485.414 L 687.291 480.850 685.145 476.830 C 683.965 474.620, 683 471.947, 683 470.892 C 683 469.836, 682.550 468.079, 682 466.986 C 681.450 465.894, 680.550 464.106, 680 463.014 C 679.450 461.921, 679 460.340, 679 459.500 C 679 458.660, 678.594 457.191, 678.097 456.236 C 677.601 455.281, 676.623 452.475, 675.924 450 C 675.224 447.525, 674.280 445.072, 673.826 444.550 C 673.372 444.028, 673 442.650, 673 441.488 C 673 440.326, 672.100 437.513, 671 435.236 C 669.900 432.959, 669 430.259, 669 429.236 C 669 428.213, 668.100 425.513, 667 423.236 C 665.900 420.959, 665 418.220, 665 417.148 C 665 414.186, 659.985 409.574, 622.634 378.185 C 619.811 375.812, 615.058 371.762, 612.073 369.185 C 609.088 366.608, 603.441 361.800, 599.523 358.500 C 585.228 346.458, 567.520 331.390, 562.504 327 C 555.752 321.091, 552.610 318.427, 545.993 313 C 542.976 310.525, 539.541 307.600, 538.360 306.500 C 532.378 300.926, 530.127 299, 529.592 299 C 529.269 299, 527.322 297.412, 525.264 295.472 C 523.207 293.532, 519.417 290.269, 516.842 288.222 C 514.267 286.175, 501.234 273.615, 487.879 260.310 L 463.598 236.120 464.916 233.310 C 466.249 230.467, 467.062 228.826, 469.156 224.750 C 471.523 220.143, 472.397 218.402, 474.300 214.500 C 475.373 212.300, 476.644 209.713, 477.125 208.750 C 477.606 207.787, 478.450 206.100, 479 205 C 484.641 193.719, 486.004 191.893, 496.603 181.422 L 507.151 171 538.889 171 L 570.626 171 573.200 173.750 C 574.616 175.262, 582.657 185.725, 591.070 197 C 599.483 208.275, 606.733 217.650, 607.183 217.833 C 607.632 218.017, 608 218.561, 608 219.042 C 608 220.072, 624.071 241.344, 625.218 241.833 C 625.648 242.017, 626.002 242.692, 626.005 243.333 C 626.007 243.975, 627.357 245.938, 629.005 247.696 C 630.652 249.453, 632.010 251.253, 632.023 251.696 C 632.036 252.138, 633.580 254.202, 635.454 256.282 L 638.861 260.065 650.681 259.782 L 662.500 259.500 662.812 255.168 C 662.983 252.785, 662.363 247.610, 661.434 243.668 C 660.505 239.726, 659.390 233.350, 658.955 229.500 C 658.521 225.650, 657.659 220.250, 657.040 217.500 C 655.893 212.407, 655.242 208.412, 652.601 190.243 C 651.780 184.601, 650.812 179.505, 650.449 178.917 C 650.086 178.330, 649.431 174.396, 648.993 170.175 C 647.979 160.403, 644.140 138.195, 641.823 128.699 C 641.313 126.608, 640.193 124.627, 639.334 124.298 C 638.420 123.947, 629.256 127.955, 617.217 133.972 L 596.661 144.245 589.157 143.565 C 585.031 143.191, 580.862 142.461, 579.893 141.943 C 578.924 141.424, 576.746 141, 575.053 141 C 573.360 141, 568.727 140.100, 564.757 139 C 560.788 137.900, 556.098 137, 554.335 137 C 552.572 137, 549.863 136.507, 548.315 135.905 C 546.767 135.303, 541.900 134.186, 537.500 133.422 C 533.100 132.658, 525 131.081, 519.500 129.918 C 514 128.755, 507.250 127.437, 504.500 126.989 C 501.750 126.541, 496.818 125.460, 493.540 124.587 C 490.262 123.714, 486.612 123, 485.429 123 C 484.245 123, 477.927 126.503, 471.389 130.784 M 337.502 267.350 C 329.919 271.285, 322.134 277.954, 314.750 286.843 L 312 290.154 312.643 301.827 C 313.227 312.438, 313.600 314.137, 316.736 320.500 C 319.213 325.527, 322.597 329.944, 328.744 336.172 L 337.304 344.845 333.973 346.871 C 332.140 347.985, 330.285 348.676, 329.850 348.407 C 328.438 347.535, 322.810 351.061, 323.353 352.478 C 323.676 353.320, 321.623 355.229, 317.844 357.598 C 309.434 362.871, 301.512 374.772, 297.986 387.429 C 295.266 397.195, 297.804 408.840, 305.913 423.794 C 309.813 430.987, 314.064 435.502, 322.195 441.088 L 327.890 445 348.807 445 L 369.724 445 377.612 440.957 C 383.471 437.954, 387.752 434.679, 394.255 428.223 L 403.010 419.531 420.872 437.372 C 440.652 457.129, 439.317 456.473, 445.876 449.654 C 449.813 445.562, 449.676 443.056, 445.264 438.424 C 443.732 436.816, 441.380 433.925, 440.037 432 C 438.695 430.075, 437.341 428.275, 437.029 428 C 436.717 427.725, 431.999 421.875, 426.544 415 C 421.089 408.125, 416 401.751, 415.235 400.836 C 414.008 399.367, 414.808 397.726, 422.055 386.836 C 427.101 379.254, 433.875 370.796, 439.633 364.890 C 444.785 359.605, 449 354.815, 449 354.247 C 449 353.679, 448.288 352.941, 447.418 352.607 C 445.355 351.815, 405.645 351.815, 403.582 352.607 C 401.344 353.466, 401.523 354.289, 405.925 363.387 C 408.705 369.133, 409.693 372.302, 409.309 374.250 C 409.011 375.762, 408.369 377, 407.883 377 C 407.398 377, 407 377.900, 407 379 C 407 380.100, 406.550 381, 406 381 C 405.450 381, 405 381.900, 405 383 C 405 384.100, 404.550 385, 404 385 C 403.450 385, 403 385.775, 403 386.723 C 403 388.063, 402.617 387.897, 401.273 385.973 C 400.323 384.613, 392.898 375.216, 384.773 365.092 C 376.648 354.967, 370.011 346.192, 370.025 345.592 C 370.039 344.991, 375.659 340.789, 382.514 336.253 L 394.978 328.007 399.989 318.022 C 404.807 308.420, 405 307.715, 405 299.680 C 405 291.688, 404.783 290.878, 400.031 281.161 C 396.233 273.395, 394.597 271, 393.090 271 C 392.005 271, 390.840 270.550, 390.500 270 C 390.160 269.450, 388.810 269, 387.500 269 C 386.190 269, 384.840 268.550, 384.500 268 C 384.160 267.450, 382.810 267, 381.500 267 C 380.190 267, 378.840 266.550, 378.500 266 C 378.160 265.450, 376.810 265, 375.500 265 C 374.190 265, 372.840 264.550, 372.500 264 C 372.133 263.407, 366.519 263.041, 358.691 263.100 L 345.500 263.200 337.502 267.350 M 356 275 C 356 275.550, 355.100 276, 354 276 C 352.900 276, 352 276.450, 352 277 C 352 277.550, 351.100 278, 350 278 C 348.900 278, 348 278.450, 348 279 C 348 279.550, 347.100 280, 346 280 C 344.900 280, 344 280.450, 344 281 C 344 281.550, 343.390 282, 342.645 282 C 341.195 282, 332.978 297.417, 332.992 300.112 C 332.996 300.998, 334.819 305.273, 337.043 309.612 C 339.984 315.349, 343.318 319.750, 349.272 325.751 L 357.457 334.001 365.808 325.751 C 372.434 319.205, 375.086 315.670, 378.643 308.643 L 383.128 299.786 378.838 291.119 L 374.548 282.452 366.010 278.226 C 356.920 273.727, 356 273.431, 356 275 M 339.563 365.523 C 334.827 370.258, 331 374.934, 331 375.984 C 331 377.028, 330.550 378.160, 330 378.500 C 329.450 378.840, 329 380.640, 329 382.500 C 329 384.360, 328.598 386.131, 328.106 386.435 C 326.255 387.578, 324.420 405.497, 325.858 408.379 C 326.441 409.545, 328.018 413.875, 329.363 418 C 331.101 423.329, 332.343 425.600, 333.654 425.847 C 334.669 426.038, 335.928 426.600, 336.450 427.097 C 336.973 427.594, 338.408 428, 339.641 428 C 340.874 428, 342.160 428.450, 342.500 429 C 342.840 429.550, 344.190 430, 345.500 430 C 346.810 430, 348.160 430.450, 348.500 431 C 348.840 431.550, 349.998 432, 351.073 432 C 352.148 432, 353.873 432.528, 354.906 433.174 C 356.477 434.154, 358.321 433.584, 366.143 429.701 C 373.701 425.948, 377.034 423.511, 383.480 417.024 C 392.557 407.889, 392.503 408.951, 384.378 399.364 C 382.111 396.689, 373.457 386.319, 365.147 376.321 C 356.838 366.322, 349.608 357.876, 349.082 357.551 C 348.556 357.226, 344.273 360.813, 339.563 365.523 M 41 381.266 C 41 381.962, 46.400 387.917, 53 394.500 C 59.600 401.083, 65 407.269, 65 408.248 C 65 409.226, 65.411 410.809, 65.914 411.764 C 66.417 412.719, 68.261 418.225, 70.013 424 C 71.764 429.775, 73.995 436.975, 74.970 440 C 75.944 443.025, 77.508 447.975, 78.444 451 C 79.380 454.025, 83.527 467.300, 87.660 480.500 C 91.794 493.700, 95.995 507.200, 96.997 510.500 C 97.999 513.800, 100.247 521, 101.993 526.500 C 103.739 532, 105.836 538.750, 106.653 541.500 C 107.470 544.250, 108.963 548.975, 109.970 552 C 110.978 555.025, 113.256 562.225, 115.033 568 C 116.810 573.775, 119.488 582.325, 120.985 587 C 122.482 591.675, 124.726 598.875, 125.972 603 C 127.218 607.125, 128.572 611.400, 128.981 612.500 C 129.389 613.600, 130.267 616.300, 130.932 618.500 C 133.218 626.065, 134.243 628, 135.963 628 C 138.190 628, 150 615.719, 150 613.403 C 150 612.430, 150.857 609.128, 151.904 606.067 C 152.951 603.005, 154.758 597.350, 155.921 593.500 C 157.083 589.650, 159.347 582.225, 160.951 577 C 162.556 571.775, 165.295 562.775, 167.039 557 C 168.783 551.225, 171.041 543.800, 172.058 540.500 C 173.991 534.225, 182.977 504.656, 188.165 487.500 C 193.800 468.868, 193.589 469.363, 194.873 471.762 C 195.493 472.921, 196 474.772, 196 475.875 C 196 476.979, 196.450 478.160, 197 478.500 C 197.550 478.840, 198 480.072, 198 481.238 C 198 483.490, 199.663 489.347, 201.123 492.236 C 201.605 493.191, 202 495.302, 202 496.927 C 202 498.552, 202.450 500.160, 203 500.500 C 203.550 500.840, 204 502.190, 204 503.500 C 204 504.810, 204.450 506.160, 205 506.500 C 205.550 506.840, 206 508.640, 206 510.500 C 206 512.360, 206.450 514.160, 207 514.500 C 207.550 514.840, 208 516.441, 208 518.059 C 208 519.677, 208.450 521, 209 521 C 209.550 521, 210 522.548, 210 524.441 C 210 526.334, 210.450 528.160, 211 528.500 C 211.550 528.840, 212 530.441, 212 532.059 C 212 533.677, 212.450 535, 213 535 C 213.550 535, 214 536.548, 214 538.441 C 214 540.334, 214.450 542.160, 215 542.500 C 215.550 542.840, 216 544.415, 216 546 C 216 547.585, 216.450 549.160, 217 549.500 C 217.550 549.840, 218 551.441, 218 553.059 C 218 554.677, 218.450 556, 219 556 C 219.550 556, 220 557.548, 220 559.441 C 220 561.334, 220.450 563.160, 221 563.500 C 221.550 563.840, 222 565.415, 222 567 C 222 568.585, 222.450 570.160, 223 570.500 C 223.550 570.840, 224 572.415, 224 574 C 224 575.585, 224.450 577.160, 225 577.500 C 225.550 577.840, 226 579.415, 226 581 C 226 582.585, 226.450 584.160, 227 584.500 C 227.550 584.840, 228 586.415, 228 588 C 228 589.585, 228.450 591.160, 229 591.500 C 229.550 591.840, 230 593.441, 230 595.059 C 230 596.677, 230.450 598, 231 598 C 231.550 598, 232 599.548, 232 601.441 C 232 603.334, 232.450 605.160, 233 605.500 C 233.550 605.840, 234 607.441, 234 609.059 C 234 610.677, 234.450 612, 235 612 C 235.550 612, 236 613.548, 236 615.441 C 236 617.334, 236.450 619.160, 237 619.500 C 237.550 619.840, 238 621.249, 238 622.630 C 238 625.221, 240.037 628, 241.935 628 C 244.099 628, 255 615.879, 255 613.472 C 255 612.177, 255.450 610.840, 256 610.500 C 256.550 610.160, 257 608.810, 257 607.500 C 257 606.190, 257.450 604.840, 258 604.500 C 258.550 604.160, 259 602.810, 259 601.500 C 259 600.190, 259.450 598.840, 260 598.500 C 260.550 598.160, 261 596.810, 261 595.500 C 261 594.190, 261.450 592.840, 262 592.500 C 262.550 592.160, 263 590.810, 263 589.500 C 263 588.190, 263.450 586.840, 264 586.500 C 264.550 586.160, 265 584.810, 265 583.500 C 265 582.190, 265.450 580.840, 266 580.500 C 266.550 580.160, 267 578.810, 267 577.500 C 267 576.190, 267.450 574.840, 268 574.500 C 268.550 574.160, 269 572.810, 269 571.500 C 269 570.190, 269.450 568.840, 270 568.500 C 270.550 568.160, 271 566.810, 271 565.500 C 271 564.190, 271.450 562.840, 272 562.500 C 272.550 562.160, 273 560.810, 273 559.500 C 273 558.190, 273.450 556.840, 274 556.500 C 274.550 556.160, 275 554.810, 275 553.500 C 275 552.190, 275.450 550.840, 276 550.500 C 276.550 550.160, 277 548.810, 277 547.500 C 277 546.190, 277.450 544.840, 278 544.500 C 278.550 544.160, 279 542.810, 279 541.500 C 279 540.190, 279.450 538.840, 280 538.500 C 280.550 538.160, 281 536.810, 281 535.500 C 281 534.190, 281.450 532.840, 282 532.500 C 282.550 532.160, 283 530.810, 283 529.500 C 283 528.190, 283.450 526.840, 284 526.500 C 284.550 526.160, 285 524.810, 285 523.500 C 285 522.190, 285.450 520.840, 286 520.500 C 286.550 520.160, 287 518.810, 287 517.500 C 287 516.190, 287.450 514.840, 288 514.500 C 288.550 514.160, 289 512.810, 289 511.500 C 289 510.190, 289.450 508.840, 290 508.500 C 290.550 508.160, 291 506.810, 291 505.500 C 291 504.190, 291.450 502.840, 292 502.500 C 292.550 502.160, 293 500.810, 293 499.500 C 293 498.190, 293.450 496.840, 294 496.500 C 294.550 496.160, 295 494.810, 295 493.500 C 295 492.190, 295.450 490.840, 296 490.500 C 296.550 490.160, 297 488.810, 297 487.500 C 297 486.190, 297.450 484.840, 298 484.500 C 298.550 484.160, 299 482.810, 299 481.500 C 299 480.190, 299.450 478.840, 300 478.500 C 300.550 478.160, 301 476.810, 301 475.500 C 301 474.190, 301.450 472.840, 302 472.500 C 302.550 472.160, 303 470.810, 303 469.500 C 303 468.190, 303.450 466.840, 304 466.500 C 304.550 466.160, 305 464.810, 305 463.500 C 305 462.190, 305.450 460.840, 306 460.500 C 306.550 460.160, 307 458.810, 307 457.500 C 307 456.190, 307.450 454.840, 308 454.500 C 308.550 454.160, 309 452.810, 309 451.500 C 309 450.190, 309.450 448.840, 310 448.500 C 310.550 448.160, 311 446.810, 311 445.500 C 311 444.190, 311.450 442.840, 312 442.500 C 314.220 441.128, 312.721 437.229, 307.985 432.052 C 305.243 429.056, 303 426.018, 303 425.302 C 303 424.586, 302.550 424, 302 424 C 301.450 424, 301 423.394, 301 422.654 C 301 421.913, 300.292 419.888, 299.427 418.154 C 297.700 414.693, 294 413.746, 294 416.764 C 294 417.734, 293.100 420.991, 292 424 C 290.900 427.009, 290 430.464, 290 431.677 C 290 432.890, 289.550 434.160, 289 434.500 C 288.450 434.840, 288 435.998, 288 437.073 C 288 438.148, 287.594 439.809, 287.097 440.764 C 286.601 441.719, 285.657 444.525, 285 447 C 284.343 449.475, 283.399 452.281, 282.903 453.236 C 282.406 454.191, 282 456.077, 282 457.427 C 282 458.777, 281.550 460.160, 281 460.500 C 280.450 460.840, 280 461.998, 280 463.073 C 280 464.148, 279.605 465.809, 279.123 466.764 C 277.649 469.681, 276 475.519, 276 477.821 C 276 479.019, 275.550 480, 275 480 C 274.450 480, 274 481.323, 274 482.941 C 274 484.559, 273.550 486.160, 273 486.500 C 272.450 486.840, 272 488.190, 272 489.500 C 272 490.810, 271.550 492.160, 271 492.500 C 270.450 492.840, 270 494.415, 270 496 C 270 497.585, 269.550 499.160, 269 499.500 C 268.450 499.840, 268 501.441, 268 503.059 C 268 504.677, 267.550 506, 267 506 C 266.450 506, 266 507.323, 266 508.941 C 266 510.559, 265.550 512.160, 265 512.500 C 264.450 512.840, 264 514.190, 264 515.500 C 264 516.810, 263.550 518.160, 263 518.500 C 262.450 518.840, 262 520.415, 262 522 C 262 523.585, 261.550 525.160, 261 525.500 C 260.450 525.840, 260 527.441, 260 529.059 C 260 530.677, 259.550 532, 259 532 C 258.450 532, 258 533.323, 258 534.941 C 258 536.559, 257.602 538.128, 257.115 538.429 C 256.629 538.729, 255.985 540.219, 255.684 541.738 C 254.633 547.050, 253.204 551.485, 253.102 549.750 C 253.046 548.788, 252.550 548, 252 548 C 251.450 548, 251 546.002, 251 543.559 C 251 541.116, 250.550 538.840, 250 538.500 C 249.450 538.160, 249 536.135, 249 534 C 249 531.865, 248.550 529.840, 248 529.500 C 247.450 529.160, 247 526.910, 247 524.500 C 247 522.090, 246.550 519.840, 246 519.500 C 245.450 519.160, 245 517.199, 245 515.141 C 245 513.083, 244.596 510.973, 244.102 510.450 C 243.609 509.928, 242.923 507.475, 242.579 505 C 241.035 493.909, 240.743 492.445, 239.898 491.550 C 239.404 491.027, 239 488.980, 239 487 C 239 485.020, 238.596 482.973, 238.102 482.450 C 237.257 481.555, 236.965 480.091, 235.421 469 C 235.077 466.525, 234.391 464.072, 233.898 463.550 C 233.404 463.027, 233 460.980, 233 459 C 233 457.020, 232.596 454.973, 232.102 454.450 C 231.609 453.928, 230.934 451.587, 230.602 449.250 C 230.271 446.913, 229.729 443.087, 229.398 440.750 C 229.066 438.413, 228.391 436.072, 227.898 435.550 C 227.404 435.027, 227 432.917, 227 430.859 C 227 428.801, 226.550 426.840, 226 426.500 C 225.450 426.160, 225 423.910, 225 421.500 C 225 419.090, 224.550 416.840, 224 416.500 C 223.450 416.160, 223 414.199, 223 412.141 C 223 410.083, 222.596 407.973, 222.102 407.450 C 221.609 406.928, 220.959 404.700, 220.659 402.500 C 219.310 392.610, 219.015 392, 215.587 392 C 213.834 392, 211.972 392.369, 211.450 392.819 C 210.927 393.270, 204.425 395.603, 197 398.004 C 189.575 400.404, 182.713 403.030, 181.750 403.839 C 180.737 404.691, 180 406.693, 180 408.596 C 180 410.403, 179.598 412.131, 179.106 412.435 C 178.262 412.956, 177.956 414.362, 176.418 424.756 C 176.072 427.097, 175.386 429.261, 174.894 429.565 C 174.402 429.869, 174 431.865, 174 434 C 174 436.135, 173.598 438.131, 173.106 438.435 C 172.614 438.739, 171.939 440.790, 171.606 442.994 C 171.273 445.197, 170.727 448.803, 170.394 451.006 C 170.061 453.210, 169.386 455.261, 168.894 455.565 C 168.402 455.869, 168 457.865, 168 460 C 168 462.135, 167.598 464.131, 167.106 464.435 C 166.614 464.739, 165.968 466.678, 165.670 468.744 C 165.373 470.810, 164.630 474.750, 164.020 477.500 C 163.410 480.250, 162.675 483.850, 162.387 485.500 C 162.099 487.150, 161.475 489.400, 161 490.500 C 160.525 491.600, 159.901 493.850, 159.613 495.500 C 159.325 497.150, 158.599 500.750, 158 503.500 C 157.401 506.250, 156.675 509.850, 156.387 511.500 C 156.099 513.150, 155.475 515.400, 155 516.500 C 154.525 517.600, 153.901 519.850, 153.613 521.500 C 153.325 523.150, 152.590 526.750, 151.980 529.500 C 151.370 532.250, 150.627 536.190, 150.330 538.256 C 150.032 540.322, 149.386 542.261, 148.894 542.565 C 148.402 542.869, 148 544.666, 148 546.559 C 148 548.452, 147.550 550, 147 550 C 146.450 550, 146 549.094, 146 547.986 C 146 546.879, 145.594 545.191, 145.097 544.236 C 144.601 543.281, 143.636 540.475, 142.953 538 C 141.317 532.071, 137.933 521.018, 136.983 518.500 C 136.568 517.400, 135.662 514.475, 134.970 512 C 133.236 505.798, 129.895 494.917, 128.983 492.500 C 128.568 491.400, 127.666 488.475, 126.979 486 C 124.183 475.930, 123.718 474.428, 122.877 472.764 C 122.395 471.809, 122 470.148, 122 469.073 C 122 467.998, 121.550 466.840, 121 466.500 C 120.450 466.160, 120 464.777, 120 463.427 C 120 462.077, 119.594 460.191, 119.097 459.236 C 118.601 458.281, 117.650 455.475, 116.983 453 C 116.317 450.525, 115.425 447.600, 115 446.500 C 114.575 445.400, 113.675 442.475, 113 440 C 112.325 437.525, 111.425 434.600, 111 433.500 C 110.575 432.400, 109.675 429.475, 109 427 C 108.325 424.525, 107.425 421.600, 107 420.500 C 106.575 419.400, 105.683 416.475, 105.017 414 C 104.350 411.525, 103.357 408.652, 102.809 407.614 C 101.835 405.769, 105.512 401.447, 121.357 385.816 C 127.252 380.001, 127.244 380, 82.031 380 C 49.603 380, 41 380.265, 41 381.266 M 276 381.481 C 276 383.484, 288.261 395.777, 290.669 396.188 C 292.156 396.441, 292.552 395.748, 292.777 392.500 C 292.929 390.300, 293.536 387.547, 294.126 386.381 C 294.715 385.216, 295.035 383.416, 294.837 382.381 C 294.521 380.727, 293.362 380.465, 285.239 380.212 C 277.422 379.969, 276 380.164, 276 381.481 M 334.783 382.250 C 332.278 386.147, 329.662 394.678, 330.391 396.576 C 330.978 398.106, 332.378 397.107, 339.174 390.311 C 343.812 385.673, 346.965 381.752, 346.570 381.113 C 346.192 380.501, 343.710 380, 341.056 380 C 337.147 380, 335.955 380.427, 334.783 382.250" stroke="none" fill="#fffcfc" fill-rule="evenodd"/><path d="" stroke="none" fill="#fcfcfc" fill-rule="evenodd"/></svg>